<svg width="16" height="18" viewBox="0 0 16 18" fill="none" xmlns="http://www.w3.org/2000/svg">
<path d="M13.631 4.13598C13.514 4.07698 13.401 4.01198 13.29 3.94098C12.97 3.73298 12.676 3.48798 12.415 3.21098C11.763 2.47798 11.519 1.73398 11.429 1.21298H11.433C11.358 0.779976 11.389 0.500977 11.394 0.500977H8.42097V11.79C8.42097 11.942 8.42097 12.092 8.41497 12.24C8.41497 12.258 8.41297 12.275 8.41197 12.295C8.41197 12.303 8.41197 12.311 8.40997 12.32V12.326C8.34597 13.149 7.86997 13.886 7.13997 14.294C6.76497 14.503 6.34197 14.613 5.90997 14.613C4.52597 14.613 3.40297 13.503 3.40297 12.134C3.40297 10.764 4.52597 9.65498 5.90997 9.65498C6.17297 9.65398 6.43297 9.69498 6.68197 9.77498L6.68597 6.80198C5.15597 6.60798 3.61397 7.05098 2.43197 8.02398C1.91897 8.46198 1.48897 8.98298 1.15897 9.56598C1.03297 9.77898 0.55997 10.632 0.50297 12.018C0.46697 12.805 0.706971 13.62 0.821971 13.956V13.964C0.893971 14.162 1.17297 14.839 1.62897 15.409C1.99597 15.867 2.42997 16.269 2.91597 16.602V16.595L2.92297 16.602C4.36197 17.563 5.95797 17.5 5.95797 17.5C6.23397 17.489 7.15897 17.5 8.20997 17.011C9.37497 16.468 10.038 15.661 10.038 15.661C10.462 15.178 10.799 14.628 11.035 14.034C11.304 13.34 11.394 12.507 11.394 12.174V6.18398C11.43 6.20598 11.91 6.51798 11.91 6.51798C11.91 6.51798 12.602 6.95298 13.681 7.23698C14.456 7.43898 15.499 7.48098 15.499 7.48098V4.58298C15.133 4.62198 14.391 4.50798 13.631 4.13598Z" fill="#808080"/>
</svg>
